<?xml version="1.0" encoding="iso-8859-1"?>
<!-- Generator: Adobe Illustrator 17.1.0, SVG Export Plug-In . SVG Version: 6.00 Build 0)  -->
<!DOCTYPE svg PUBLIC "-//W3C//DTD SVG 1.1//EN" "http://www.w3.org/Graphics/SVG/1.1/DTD/svg11.dtd">
<svg version="1.1" id="Capa_1" xmlns="http://www.w3.org/2000/svg" xmlns:xlink="http://www.w3.org/1999/xlink" x="0px" y="0px"
	 viewBox="0 0 92.008 92.008" style="enable-background:new 0 0 92.008 92.008;" xml:space="preserve">
<g
   id="g4"
   transform="matrix(3.0172822,0,0,2.882986,0.40630223,2.4494465)">
	<path
   d="m 20.194,3.46 c -4.613,-4.613 -12.121,-4.613 -16.734,0 -4.612,4.614 -4.612,12.121 0,16.735 4.108,4.107 10.506,4.547 15.116,1.34 0.097,0.459 0.319,0.897 0.676,1.254 l 6.718,6.718 c 0.979,0.977 2.561,0.977 3.535,0 0.978,-0.978 0.978,-2.56 0,-3.535 l -6.718,-6.72 C 22.432,18.898 21.993,18.675 21.534,18.578 24.743,13.967 24.303,7.57 20.194,3.46 Z m -2.121,14.614 c -3.444,3.444 -9.049,3.444 -12.492,0 -3.442,-3.444 -3.442,-9.048 0,-12.492 3.443,-3.443 9.048,-3.443 12.492,0 3.444,3.444 3.444,9.048 0,12.492 z"
   id="path2" />
</g>
<g
   id="g6">
</g>
<g
   id="g8">
</g>
<g
   id="g10">
</g>
<g
   id="g12">
</g>
<g
   id="g14">
</g>
<g
   id="g16">
</g>
<g
   id="g18">
</g>
<g
   id="g20">
</g>
<g
   id="g22">
</g>
<g
   id="g24">
</g>
<g
   id="g26">
</g>
<g
   id="g28">
</g>
<g
   id="g30">
</g>
<g
   id="g32">
</g>
<g
   id="g34">
</g>
</svg>
