<svg height="512" viewBox="0 0 297 297" width="512">
<g
   id="g14"
   transform="matrix(0.63776466,0,0,0.63776466,49.999362,50)">
	<g
   id="g12">
		<g
   id="g10">
			<path
   d="M 107.883,0 H 22.613 C 10.144,0 0.001,10.143 0.001,22.612 v 85.27 c 0,12.469 10.143,22.612 22.612,22.612 h 85.27 c 12.469,0 22.612,-10.143 22.612,-22.612 V 22.612 C 130.493,10.143 120.352,0 107.883,0 Z"
   id="path2" />
			<path
   d="m 274.388,0 h -85.27 c -12.469,0 -22.612,10.143 -22.612,22.612 v 85.27 c 0,12.469 10.143,22.612 22.612,22.612 h 85.27 c 12.469,0 22.612,-10.143 22.612,-22.612 V 22.612 C 297,10.143 286.857,0 274.388,0 Z"
   id="path4" />
			<path
   d="m 107.883,166.507 h -85.27 c -12.469,0 -22.612,10.142 -22.612,22.611 v 85.27 C 0.001,286.857 10.144,297 22.613,297 h 85.27 c 12.469,0 22.612,-10.143 22.612,-22.612 v -85.27 c -0.002,-12.469 -10.143,-22.611 -22.612,-22.611 z"
   id="path6" />
			<path
   d="m 274.388,166.507 h -85.27 c -12.469,0 -22.612,10.143 -22.612,22.612 v 85.27 c 0,12.469 10.143,22.612 22.612,22.612 h 85.27 C 286.857,297 297,286.857 297,274.388 v -85.27 c 0,-12.469 -10.143,-22.611 -22.612,-22.611 z"
   id="path8" />
		</g>
	</g>
</g>
</svg>
