<?xml version="1.0" encoding="iso-8859-1"?>
<!-- Generator: Adobe Illustrator 17.1.0, SVG Export Plug-In . SVG Version: 6.00 Build 0)  -->
<!DOCTYPE svg PUBLIC "-//W3C//DTD SVG 1.1//EN" "http://www.w3.org/Graphics/SVG/1.1/DTD/svg11.dtd">
<svg version="1.1" id="Capa_1" xmlns="http://www.w3.org/2000/svg" xmlns:xlink="http://www.w3.org/1999/xlink" x="0px" y="0px"
	 viewBox="0 0 92.008 92.008" style="enable-background:new 0 0 92.008 92.008;" xml:space="preserve">
<g
   id="g8"
   transform="matrix(0.15597002,0,0,0.15597002,0.7932287,0.91114149)">
	<g
   id="g6">
		<path
   d="M 460.17,2.065 455.676,0.43 C 454.883,0.144 454.051,0 453.219,0 450.217,0 447.5,1.894 446.477,4.714 L 324.891,338.102 c -1.627,-0.201 -3.271,-0.354 -4.916,-0.479 -1.654,-0.124 -3.328,-0.191 -5.001,-0.229 -26.02,-0.641 -53.751,8.874 -74.138,31.537 l 58.485,11.37 4.752,0.928 4.752,0.928 19.011,3.7 4.753,0.928 4.752,0.928 52.25,10.155 c -0.115,-2.113 -0.287,-4.16 -0.555,-6.13 -2.793,-20.626 -17.107,-36.558 -36.5,-45.708 -1.434,-0.68 -2.889,-1.339 -4.379,-1.941 -1.473,-0.593 -2.975,-1.129 -4.486,-1.654 L 464.456,11.265 c 1.347,-3.72 -0.575,-7.841 -4.286,-9.2 z"
   id="path2" />
		<path
   d="M 301.721,400.258 228.3,385.98 c -26.88,43.061 -36.625,96.639 -60.798,123.691 -9.008,10.089 -27.091,34.989 -55.778,39.847 l 156.385,19.125 42.83,-63.753 -18.895,66.68 41.205,5.039 c 0,0 48.5,-95.797 55.596,-159.407 l -62.338,-12.125 z"
   id="path4" />
	</g>
</g>
</svg>
