<svg version="1.1" id="Capa_1" xmlns="http://www.w3.org/2000/svg" xmlns:xlink="http://www.w3.org/1999/xlink" x="0px" y="0px" viewBox="0 0 58 58" style="enable-background:new 0 0 58 58;" xml:space="preserve">
   <g id="g841" transform="matrix(1.4378622,0,0,1.4378622,-11.948718,-12.891203)">
      <g id="g4" transform="matrix(0.09723992,0,0,0.09723992,8.5932681,9.0625)">
         <path d="m 206.549,0 v 0 c -82.6,0 -149.3,66.7 -149.3,149.3 0,28.8 9.2,56.3 22,78.899 l 97.3,168.399 c 6.1,11 18.4,16.5 30,16.5 11.601,0 23.3,-5.5 30,-16.5 l 97.3,-168.299 c 12.9,-22.601 22,-49.601 22,-78.901 C 355.849,66.8 289.149,0 206.549,0 Z m 0,193.4 c -30,0 -54.5,-24.5 -54.5,-54.5 0,-30 24.5,-54.5 54.5,-54.5 30,0 54.5,24.5 54.5,54.5 0,30.1 -24.5,54.5 -54.5,54.5 z" id="path2" />
      </g>
      <circle style="fill:#000000;fill-rule:evenodd;stroke-width:0.113281" id="path38" cx="39.434799" cy="45.623032" r="3.260355" />
      <ellipse style="fill:#ffffff;stroke-width:0.113281" id="path949" cx="39.449966" cy="45.628868" rx="1.0162045" ry="2.032409" />
      <ellipse style="fill:#ffffff;stroke-width:0.113281" id="path951" cx="39.465137" cy="45.598534" rx="2.1234124" ry="1.0617062" />
   </g>
</svg>
