<?xml version="1.0" encoding="UTF-8" standalone="no"?>
<svg
   xmlns:dc="http://purl.org/dc/elements/1.1/"
   xmlns:cc="http://creativecommons.org/ns#"
   xmlns:rdf="http://www.w3.org/1999/02/22-rdf-syntax-ns#"
   xmlns:svg="http://www.w3.org/2000/svg"
   xmlns="http://www.w3.org/2000/svg"
   xmlns:sodipodi="http://sodipodi.sourceforge.net/DTD/sodipodi-0.dtd"
   xmlns:inkscape="http://www.inkscape.org/namespaces/inkscape"
   height="512"
   viewBox="0 0 58 58"
   width="512"
   version="1.1"
   id="svg6"
   sodipodi:docname="Pin 2.0.svg"
   inkscape:version="1.0.2 (e86c870879, 2021-01-15)"
   inkscape:export-filename="/home/xihnik/Code/GitHub/map-memory/src/assets/images/svg/Pin 2.0.png"
   inkscape:export-xdpi="96"
   inkscape:export-ydpi="96">
  <metadata
     id="metadata12">
    <rdf:RDF>
      <cc:Work
         rdf:about="">
        <dc:format>image/svg+xml</dc:format>
        <dc:type
           rdf:resource="http://purl.org/dc/dcmitype/StillImage" />
      </cc:Work>
    </rdf:RDF>
  </metadata>
  <defs
     id="defs10" />
  <sodipodi:namedview
     pagecolor="#ffffff"
     bordercolor="#666666"
     borderopacity="1"
     objecttolerance="10"
     gridtolerance="10"
     guidetolerance="10"
     inkscape:pageopacity="0"
     inkscape:pageshadow="2"
     inkscape:window-width="1920"
     inkscape:window-height="979"
     id="namedview8"
     showgrid="false"
     inkscape:zoom="1.0896626"
     inkscape:cx="72.833759"
     inkscape:cy="261.41844"
     inkscape:window-x="0"
     inkscape:window-y="0"
     inkscape:window-maximized="1"
     inkscape:current-layer="svg6"
     inkscape:document-rotation="0" />
  <g
     id="g4"
     transform="matrix(0.09723992,0,0,0.09723992,8.5932681,9.0625)">
    <path
       d="m 206.549,0 v 0 c -82.6,0 -149.3,66.7 -149.3,149.3 0,28.8 9.2,56.3 22,78.899 l 97.3,168.399 c 6.1,11 18.4,16.5 30,16.5 11.601,0 23.3,-5.5 30,-16.5 l 97.3,-168.299 c 12.9,-22.601 22,-49.601 22,-78.901 C 355.849,66.8 289.149,0 206.549,0 Z m 0,193.4 c -30,0 -54.5,-24.5 -54.5,-54.5 0,-30 24.5,-54.5 54.5,-54.5 30,0 54.5,24.5 54.5,54.5 0,30.1 -24.5,54.5 -54.5,54.5 z"
       id="path2" />
  </g>
</svg>
