<svg id="bold" enable-background="new 0 0 500 500" viewBox="0 0 1200 1200" xmlns="http://www.w3.org/2000/svg">
  <g
     id="g828"
     transform="matrix(50.0691,0,0,50.0691,0,-3.0440795)">
    <path
       d="m 13.25,16 h -2.5 C 10.061,16 9.5,15.439 9.5,14.75 V 9 H 6.75 C 6.091,9 5.753,8.208 6.208,7.732 l 5.25,-5.5 c 0.283,-0.296 0.802,-0.296 1.085,0 l 5.25,5.5 C 18.247,8.208 17.909,9 17.25,9 H 14.5 v 5.75 c 0,0.689 -0.561,1.25 -1.25,1.25 z"
       id="path2" />
    <path
       d="M 22.25,22 H 1.75 C 0.785,22 0,21.215 0,20.25 v -0.5 C 0,18.785 0.785,18 1.75,18 h 20.5 c 0.965,0 1.75,0.785 1.75,1.75 v 0.5 C 24,21.215 23.215,22 22.25,22 Z"
       id="path4" />
  </g>
</svg>
